<mxfile host="app.diagrams.net" agent="Mozilla/5.0 (Windows NT 10.0; Win64; x64) AppleWebKit/537.36 (KHTML, like Gecko) Chrome/131.0.0.0 Safari/537.36" version="26.0.3">
  <diagram name="Page-1" id="7e0a89b8-554c-2b80-1dc8-d5c74ca68de4">
    <mxGraphModel dx="1956" dy="508" grid="1" gridSize="10" guides="1" tooltips="1" connect="1" arrows="1" fold="1" page="1" pageScale="1" pageWidth="1100" pageHeight="850" background="none" math="0" shadow="0">
      <root>
        <mxCell id="0" />
        <mxCell id="1" parent="0" />
        <mxCell id="1cb643a89b7d889d-12" style="edgeStyle=orthogonalEdgeStyle;rounded=0;html=1;exitPerimeter=0;entryX=0;entryY=0.5;entryPerimeter=0;labelBackgroundColor=none;startArrow=none;startFill=0;startSize=5;endArrow=none;endFill=0;endSize=5;jettySize=auto;orthogonalLoop=1;strokeWidth=1;fontFamily=Verdana;fontSize=12;" parent="1" source="VuVPS5KJBOoQBnHny8Ev-2" target="1cb643a89b7d889d-2" edge="1">
          <mxGeometry relative="1" as="geometry" />
        </mxCell>
        <mxCell id="1cb643a89b7d889d-1" value="40&amp;nbsp;&lt;b&gt;Ω&lt;/b&gt;" style="verticalLabelPosition=bottom;shadow=0;dashed=0;align=center;html=1;verticalAlign=top;strokeWidth=1;shape=mxgraph.electrical.resistors.resistor_2;rounded=1;comic=0;labelBackgroundColor=none;fontFamily=Verdana;fontSize=12" parent="1" vertex="1">
          <mxGeometry x="950" y="110" width="100" height="20" as="geometry" />
        </mxCell>
        <mxCell id="1cb643a89b7d889d-15" style="edgeStyle=orthogonalEdgeStyle;rounded=0;html=1;exitX=1;exitY=0.5;exitPerimeter=0;labelBackgroundColor=none;startArrow=none;startFill=0;startSize=5;endArrow=none;endFill=0;endSize=5;jettySize=auto;orthogonalLoop=1;strokeWidth=1;fontFamily=Verdana;fontSize=12;" parent="1" source="1cb643a89b7d889d-2" target="VuVPS5KJBOoQBnHny8Ev-1" edge="1">
          <mxGeometry relative="1" as="geometry">
            <mxPoint x="1240" y="160" as="targetPoint" />
            <Array as="points">
              <mxPoint x="1210" y="120" />
              <mxPoint x="1210" y="160" />
            </Array>
          </mxGeometry>
        </mxCell>
        <mxCell id="1cb643a89b7d889d-2" value="20&amp;nbsp;&lt;b&gt;Ω&lt;/b&gt;" style="verticalLabelPosition=bottom;shadow=0;dashed=0;align=center;html=1;verticalAlign=top;strokeWidth=1;shape=mxgraph.electrical.resistors.resistor_2;rounded=1;comic=0;labelBackgroundColor=none;fontFamily=Verdana;fontSize=12" parent="1" vertex="1">
          <mxGeometry x="1090" y="110" width="100" height="20" as="geometry" />
        </mxCell>
        <mxCell id="1cb643a89b7d889d-13" style="edgeStyle=orthogonalEdgeStyle;rounded=0;html=1;exitX=1;exitY=0.5;exitPerimeter=0;labelBackgroundColor=none;startArrow=none;startFill=0;startSize=5;endArrow=none;endFill=0;endSize=5;jettySize=auto;orthogonalLoop=1;strokeWidth=1;fontFamily=Verdana;fontSize=12" parent="1" source="1cb643a89b7d889d-3" target="VuVPS5KJBOoQBnHny8Ev-8" edge="1">
          <mxGeometry relative="1" as="geometry" />
        </mxCell>
        <mxCell id="1cb643a89b7d889d-3" value="70&amp;nbsp;&lt;b&gt;Ω&lt;/b&gt;" style="verticalLabelPosition=bottom;shadow=0;dashed=0;align=center;html=1;verticalAlign=top;strokeWidth=1;shape=mxgraph.electrical.resistors.resistor_2;rounded=1;comic=0;labelBackgroundColor=none;fontFamily=Verdana;fontSize=12" parent="1" vertex="1">
          <mxGeometry x="950" y="200" width="100" height="20" as="geometry" />
        </mxCell>
        <mxCell id="1cb643a89b7d889d-14" style="edgeStyle=orthogonalEdgeStyle;rounded=0;html=1;exitX=1;exitY=0.5;exitPerimeter=0;labelBackgroundColor=none;startArrow=none;startFill=0;startSize=5;endArrow=none;endFill=0;endSize=5;jettySize=auto;orthogonalLoop=1;strokeWidth=1;fontFamily=Verdana;fontSize=12;" parent="1" source="1cb643a89b7d889d-4" target="VuVPS5KJBOoQBnHny8Ev-1" edge="1">
          <mxGeometry relative="1" as="geometry">
            <mxPoint x="1298" y="170" as="targetPoint" />
            <Array as="points">
              <mxPoint x="1210" y="210" />
              <mxPoint x="1210" y="160" />
            </Array>
          </mxGeometry>
        </mxCell>
        <mxCell id="1cb643a89b7d889d-4" value="20&amp;nbsp;&lt;b&gt;Ω&lt;/b&gt;" style="verticalLabelPosition=bottom;shadow=0;dashed=0;align=center;html=1;verticalAlign=top;strokeWidth=1;shape=mxgraph.electrical.resistors.resistor_2;rounded=1;comic=0;labelBackgroundColor=none;fontFamily=Verdana;fontSize=12" parent="1" vertex="1">
          <mxGeometry x="1090" y="200" width="100" height="20" as="geometry" />
        </mxCell>
        <mxCell id="1cb643a89b7d889d-10" style="edgeStyle=orthogonalEdgeStyle;rounded=0;html=1;entryX=0;entryY=0.5;entryPerimeter=0;labelBackgroundColor=none;startArrow=none;startFill=0;startSize=5;endArrow=none;endFill=0;endSize=5;jettySize=auto;orthogonalLoop=1;strokeWidth=1;fontFamily=Verdana;fontSize=12" parent="1" source="VuVPS5KJBOoQBnHny8Ev-4" target="1cb643a89b7d889d-1" edge="1">
          <mxGeometry relative="1" as="geometry">
            <Array as="points">
              <mxPoint x="918" y="160" />
              <mxPoint x="918" y="120" />
            </Array>
          </mxGeometry>
        </mxCell>
        <mxCell id="1cb643a89b7d889d-11" style="edgeStyle=orthogonalEdgeStyle;rounded=0;html=1;entryX=0;entryY=0.5;entryPerimeter=0;labelBackgroundColor=none;startArrow=none;startFill=0;startSize=5;endArrow=none;endFill=0;endSize=5;jettySize=auto;orthogonalLoop=1;strokeWidth=1;fontFamily=Verdana;fontSize=12;" parent="1" source="VuVPS5KJBOoQBnHny8Ev-4" target="1cb643a89b7d889d-3" edge="1">
          <mxGeometry relative="1" as="geometry">
            <Array as="points">
              <mxPoint x="918" y="160" />
              <mxPoint x="918" y="210" />
            </Array>
          </mxGeometry>
        </mxCell>
        <mxCell id="1cb643a89b7d889d-5" value="50&amp;nbsp;&lt;b&gt;Ω&lt;/b&gt;" style="verticalLabelPosition=bottom;shadow=0;dashed=0;align=center;html=1;verticalAlign=top;strokeWidth=1;shape=mxgraph.electrical.resistors.resistor_2;rounded=1;comic=0;labelBackgroundColor=none;fontFamily=Verdana;fontSize=12;" parent="1" vertex="1">
          <mxGeometry x="790" y="150" width="100" height="20" as="geometry" />
        </mxCell>
        <mxCell id="1cb643a89b7d889d-9" style="edgeStyle=orthogonalEdgeStyle;rounded=0;html=1;exitX=0;exitY=0.5;exitPerimeter=0;labelBackgroundColor=none;startArrow=none;startFill=0;startSize=5;endArrow=none;endFill=0;endSize=5;jettySize=auto;orthogonalLoop=1;strokeWidth=1;fontFamily=Verdana;fontSize=12" parent="1" source="1cb643a89b7d889d-6" target="VuVPS5KJBOoQBnHny8Ev-5" edge="1">
          <mxGeometry relative="1" as="geometry">
            <Array as="points">
              <mxPoint x="750" y="290" />
            </Array>
          </mxGeometry>
        </mxCell>
        <mxCell id="1cb643a89b7d889d-6" value="20&amp;nbsp;&lt;b&gt;Ω&lt;/b&gt;" style="verticalLabelPosition=bottom;shadow=0;dashed=0;align=center;html=1;verticalAlign=top;strokeWidth=1;shape=mxgraph.electrical.resistors.resistor_2;rounded=1;comic=0;labelBackgroundColor=none;fontFamily=Verdana;fontSize=12" parent="1" vertex="1">
          <mxGeometry x="790" y="280" width="100" height="20" as="geometry" />
        </mxCell>
        <mxCell id="1cb643a89b7d889d-8" style="edgeStyle=orthogonalEdgeStyle;rounded=0;html=1;exitX=1;exitY=0.5;exitPerimeter=0;entryX=1;entryY=0.5;entryPerimeter=0;labelBackgroundColor=none;startArrow=none;startFill=0;startSize=5;endArrow=none;endFill=0;endSize=5;jettySize=auto;orthogonalLoop=1;strokeWidth=1;fontFamily=Verdana;fontSize=12" parent="1" source="1cb643a89b7d889d-7" target="1cb643a89b7d889d-6" edge="1">
          <mxGeometry relative="1" as="geometry" />
        </mxCell>
        <mxCell id="1cb643a89b7d889d-16" style="edgeStyle=orthogonalEdgeStyle;rounded=0;html=1;exitX=0;exitY=0.5;exitPerimeter=0;labelBackgroundColor=none;startArrow=none;startFill=0;startSize=5;endArrow=none;endFill=0;endSize=5;jettySize=auto;orthogonalLoop=1;strokeWidth=1;fontFamily=Verdana;fontSize=12" parent="1" source="1cb643a89b7d889d-7" target="VuVPS5KJBOoQBnHny8Ev-1" edge="1">
          <mxGeometry relative="1" as="geometry">
            <mxPoint x="1240" y="160" as="targetPoint" />
            <Array as="points">
              <mxPoint x="1260" y="290" />
              <mxPoint x="1260" y="160" />
            </Array>
          </mxGeometry>
        </mxCell>
        <mxCell id="1cb643a89b7d889d-7" value="220 V" style="verticalLabelPosition=bottom;shadow=0;dashed=0;align=center;fillColor=default;html=1;verticalAlign=top;strokeWidth=1;shape=mxgraph.electrical.miscellaneous.monocell_battery;rounded=1;comic=0;labelBackgroundColor=none;fontFamily=Verdana;fontSize=12;flipH=1;" parent="1" vertex="1">
          <mxGeometry x="1070" y="260" width="100" height="60" as="geometry" />
        </mxCell>
        <mxCell id="VuVPS5KJBOoQBnHny8Ev-1" value="B" style="shape=waypoint;sketch=0;fillStyle=solid;size=6;pointerEvents=1;points=[];fillColor=none;resizable=0;rotatable=0;perimeter=centerPerimeter;snapToPoint=1;verticalAlign=top;spacingBottom=0;spacingTop=-5;fontFamily=Verdana;fontSize=12;" parent="1" vertex="1">
          <mxGeometry x="1220" y="140" width="40" height="40" as="geometry" />
        </mxCell>
        <mxCell id="VuVPS5KJBOoQBnHny8Ev-2" value="C" style="shape=waypoint;sketch=0;fillStyle=solid;size=6;pointerEvents=1;points=[];fillColor=none;resizable=0;rotatable=0;perimeter=centerPerimeter;snapToPoint=1;verticalAlign=top;spacingBottom=0;spacingTop=-5;fontFamily=Verdana;fontSize=12;" parent="1" vertex="1">
          <mxGeometry x="1051" y="100" width="40" height="40" as="geometry" />
        </mxCell>
        <mxCell id="VuVPS5KJBOoQBnHny8Ev-3" value="" style="edgeStyle=orthogonalEdgeStyle;rounded=0;html=1;exitX=1;exitY=0.5;exitPerimeter=0;entryPerimeter=0;labelBackgroundColor=none;startArrow=none;startFill=0;startSize=5;endArrow=none;endFill=0;endSize=5;jettySize=auto;orthogonalLoop=1;strokeWidth=1;fontFamily=Verdana;fontSize=12;" parent="1" source="1cb643a89b7d889d-1" target="VuVPS5KJBOoQBnHny8Ev-2" edge="1">
          <mxGeometry relative="1" as="geometry">
            <mxPoint x="1050" y="120.00000000000006" as="sourcePoint" />
            <mxPoint x="1090" y="120.00000000000006" as="targetPoint" />
          </mxGeometry>
        </mxCell>
        <mxCell id="VuVPS5KJBOoQBnHny8Ev-4" value="A" style="shape=waypoint;sketch=0;fillStyle=solid;size=6;pointerEvents=1;points=[];fillColor=none;resizable=0;rotatable=0;perimeter=centerPerimeter;snapToPoint=1;verticalAlign=top;spacingBottom=0;spacingTop=-5;fontFamily=Verdana;fontSize=12;" parent="1" vertex="1">
          <mxGeometry x="870" y="140" width="40" height="40" as="geometry" />
        </mxCell>
        <mxCell id="VuVPS5KJBOoQBnHny8Ev-5" value="E" style="shape=waypoint;sketch=0;fillStyle=solid;size=6;pointerEvents=1;points=[];fillColor=none;resizable=0;rotatable=0;perimeter=centerPerimeter;snapToPoint=1;verticalAlign=middle;spacingBottom=0;spacingTop=0;fontFamily=Verdana;fontSize=12;labelPosition=center;verticalLabelPosition=middle;align=left;spacingRight=0;spacingLeft=6;" parent="1" vertex="1">
          <mxGeometry x="730" y="204" width="40" height="40" as="geometry" />
        </mxCell>
        <mxCell id="VuVPS5KJBOoQBnHny8Ev-7" style="edgeStyle=orthogonalEdgeStyle;rounded=0;html=1;labelBackgroundColor=none;startArrow=none;startFill=0;startSize=5;endArrow=none;endFill=0;endSize=5;jettySize=auto;orthogonalLoop=1;strokeWidth=1;fontFamily=Verdana;fontSize=12;entryX=0;entryY=0.5;entryDx=0;entryDy=0;entryPerimeter=0;" parent="1" source="VuVPS5KJBOoQBnHny8Ev-5" target="1cb643a89b7d889d-5" edge="1">
          <mxGeometry relative="1" as="geometry">
            <Array as="points">
              <mxPoint x="750" y="160" />
            </Array>
            <mxPoint x="800" y="300" as="sourcePoint" />
            <mxPoint x="760" y="234" as="targetPoint" />
          </mxGeometry>
        </mxCell>
        <mxCell id="VuVPS5KJBOoQBnHny8Ev-8" value="D" style="shape=waypoint;sketch=0;fillStyle=solid;size=6;pointerEvents=1;points=[];fillColor=none;resizable=0;rotatable=0;perimeter=centerPerimeter;snapToPoint=1;verticalAlign=top;spacingBottom=0;spacingTop=-5;fontFamily=Verdana;fontSize=12;" parent="1" vertex="1">
          <mxGeometry x="1050" y="190" width="40" height="40" as="geometry" />
        </mxCell>
        <mxCell id="VuVPS5KJBOoQBnHny8Ev-9" style="edgeStyle=orthogonalEdgeStyle;rounded=0;html=1;labelBackgroundColor=none;startArrow=none;startFill=0;startSize=5;endArrow=none;endFill=0;endSize=5;jettySize=auto;orthogonalLoop=1;strokeWidth=1;fontFamily=Verdana;fontSize=12;entryX=0;entryY=0.5;entryDx=0;entryDy=0;entryPerimeter=0;" parent="1" source="VuVPS5KJBOoQBnHny8Ev-8" target="1cb643a89b7d889d-4" edge="1">
          <mxGeometry relative="1" as="geometry">
            <mxPoint x="1060" y="220" as="sourcePoint" />
            <mxPoint x="1080" y="220" as="targetPoint" />
          </mxGeometry>
        </mxCell>
        <mxCell id="8zKR5QXtWBGNY6RMP4Kf-1" value="&lt;b&gt;12v Power Supply&lt;/b&gt;" style="rounded=1;whiteSpace=wrap;html=1;" parent="1" vertex="1">
          <mxGeometry x="-270" y="590" width="120" height="60" as="geometry" />
        </mxCell>
        <mxCell id="6HL7fSu7sFX8N83Fmbjs-27" style="edgeStyle=orthogonalEdgeStyle;rounded=0;orthogonalLoop=1;jettySize=auto;html=1;exitX=1;exitY=0.75;exitDx=0;exitDy=0;entryX=0.5;entryY=1;entryDx=0;entryDy=0;endArrow=none;endFill=0;" edge="1" parent="1" source="8zKR5QXtWBGNY6RMP4Kf-2" target="8zKR5QXtWBGNY6RMP4Kf-30">
          <mxGeometry relative="1" as="geometry">
            <Array as="points">
              <mxPoint x="-50" y="785" />
              <mxPoint x="-50" y="700" />
              <mxPoint x="50" y="700" />
            </Array>
          </mxGeometry>
        </mxCell>
        <mxCell id="8zKR5QXtWBGNY6RMP4Kf-2" value="&lt;b&gt;Buck Converter&lt;/b&gt;" style="rounded=1;whiteSpace=wrap;html=1;" parent="1" vertex="1">
          <mxGeometry x="-270" y="740" width="120" height="60" as="geometry" />
        </mxCell>
        <mxCell id="8zKR5QXtWBGNY6RMP4Kf-4" value="&lt;b&gt;ESP32&lt;/b&gt;" style="rounded=1;whiteSpace=wrap;html=1;movable=1;resizable=1;rotatable=1;deletable=1;editable=1;locked=0;connectable=1;" parent="1" vertex="1">
          <mxGeometry x="5" y="590" width="330" height="90" as="geometry" />
        </mxCell>
        <mxCell id="8zKR5QXtWBGNY6RMP4Kf-5" value="" style="ellipse;whiteSpace=wrap;html=1;aspect=fixed;" parent="1" vertex="1">
          <mxGeometry x="25" y="590" width="10" height="10" as="geometry" />
        </mxCell>
        <mxCell id="8zKR5QXtWBGNY6RMP4Kf-6" value="" style="ellipse;whiteSpace=wrap;html=1;aspect=fixed;" parent="1" vertex="1">
          <mxGeometry x="45" y="590" width="10" height="10" as="geometry" />
        </mxCell>
        <mxCell id="8zKR5QXtWBGNY6RMP4Kf-7" value="" style="ellipse;whiteSpace=wrap;html=1;aspect=fixed;" parent="1" vertex="1">
          <mxGeometry x="125" y="590" width="10" height="10" as="geometry" />
        </mxCell>
        <mxCell id="8zKR5QXtWBGNY6RMP4Kf-8" value="" style="ellipse;whiteSpace=wrap;html=1;aspect=fixed;" parent="1" vertex="1">
          <mxGeometry x="85" y="590" width="10" height="10" as="geometry" />
        </mxCell>
        <mxCell id="8zKR5QXtWBGNY6RMP4Kf-9" value="" style="ellipse;whiteSpace=wrap;html=1;aspect=fixed;" parent="1" vertex="1">
          <mxGeometry x="145" y="590" width="10" height="10" as="geometry" />
        </mxCell>
        <mxCell id="8zKR5QXtWBGNY6RMP4Kf-10" value="" style="ellipse;whiteSpace=wrap;html=1;aspect=fixed;" parent="1" vertex="1">
          <mxGeometry x="205" y="590" width="10" height="10" as="geometry" />
        </mxCell>
        <mxCell id="8zKR5QXtWBGNY6RMP4Kf-11" value="" style="ellipse;whiteSpace=wrap;html=1;aspect=fixed;" parent="1" vertex="1">
          <mxGeometry x="305" y="590" width="10" height="10" as="geometry" />
        </mxCell>
        <mxCell id="8zKR5QXtWBGNY6RMP4Kf-12" value="" style="ellipse;whiteSpace=wrap;html=1;aspect=fixed;" parent="1" vertex="1">
          <mxGeometry x="285" y="590" width="10" height="10" as="geometry" />
        </mxCell>
        <mxCell id="8zKR5QXtWBGNY6RMP4Kf-13" value="" style="ellipse;whiteSpace=wrap;html=1;aspect=fixed;" parent="1" vertex="1">
          <mxGeometry x="245" y="590" width="10" height="10" as="geometry" />
        </mxCell>
        <mxCell id="8zKR5QXtWBGNY6RMP4Kf-14" value="" style="ellipse;whiteSpace=wrap;html=1;aspect=fixed;" parent="1" vertex="1">
          <mxGeometry x="225" y="590" width="10" height="10" as="geometry" />
        </mxCell>
        <mxCell id="8zKR5QXtWBGNY6RMP4Kf-15" value="" style="ellipse;whiteSpace=wrap;html=1;aspect=fixed;" parent="1" vertex="1">
          <mxGeometry x="265" y="590" width="10" height="10" as="geometry" />
        </mxCell>
        <mxCell id="8zKR5QXtWBGNY6RMP4Kf-16" value="" style="ellipse;whiteSpace=wrap;html=1;aspect=fixed;" parent="1" vertex="1">
          <mxGeometry x="165" y="590" width="10" height="10" as="geometry" />
        </mxCell>
        <mxCell id="8zKR5QXtWBGNY6RMP4Kf-17" value="" style="ellipse;whiteSpace=wrap;html=1;aspect=fixed;" parent="1" vertex="1">
          <mxGeometry x="65" y="590" width="10" height="10" as="geometry" />
        </mxCell>
        <mxCell id="8zKR5QXtWBGNY6RMP4Kf-18" value="" style="ellipse;whiteSpace=wrap;html=1;aspect=fixed;" parent="1" vertex="1">
          <mxGeometry x="185" y="590" width="10" height="10" as="geometry" />
        </mxCell>
        <mxCell id="8zKR5QXtWBGNY6RMP4Kf-19" value="" style="ellipse;whiteSpace=wrap;html=1;aspect=fixed;" parent="1" vertex="1">
          <mxGeometry x="105" y="590" width="10" height="10" as="geometry" />
        </mxCell>
        <mxCell id="8zKR5QXtWBGNY6RMP4Kf-29" value="" style="ellipse;whiteSpace=wrap;html=1;aspect=fixed;" parent="1" vertex="1">
          <mxGeometry x="25" y="670" width="10" height="10" as="geometry" />
        </mxCell>
        <mxCell id="8zKR5QXtWBGNY6RMP4Kf-30" value="" style="ellipse;whiteSpace=wrap;html=1;aspect=fixed;" parent="1" vertex="1">
          <mxGeometry x="45" y="670" width="10" height="10" as="geometry" />
        </mxCell>
        <mxCell id="8zKR5QXtWBGNY6RMP4Kf-31" value="" style="ellipse;whiteSpace=wrap;html=1;aspect=fixed;" parent="1" vertex="1">
          <mxGeometry x="125" y="670" width="10" height="10" as="geometry" />
        </mxCell>
        <mxCell id="6HL7fSu7sFX8N83Fmbjs-39" style="edgeStyle=orthogonalEdgeStyle;rounded=0;orthogonalLoop=1;jettySize=auto;html=1;entryX=0;entryY=0.5;entryDx=0;entryDy=0;endArrow=none;endFill=0;fillColor=#fff2cc;strokeColor=#d6b656;" edge="1" parent="1" source="8zKR5QXtWBGNY6RMP4Kf-32" target="6HL7fSu7sFX8N83Fmbjs-8">
          <mxGeometry relative="1" as="geometry">
            <Array as="points">
              <mxPoint x="90" y="720" />
              <mxPoint x="-20" y="720" />
              <mxPoint x="-20" y="785" />
            </Array>
          </mxGeometry>
        </mxCell>
        <mxCell id="8zKR5QXtWBGNY6RMP4Kf-32" value="" style="ellipse;whiteSpace=wrap;html=1;aspect=fixed;" parent="1" vertex="1">
          <mxGeometry x="85" y="670" width="10" height="10" as="geometry" />
        </mxCell>
        <mxCell id="8zKR5QXtWBGNY6RMP4Kf-33" value="" style="ellipse;whiteSpace=wrap;html=1;aspect=fixed;" parent="1" vertex="1">
          <mxGeometry x="145" y="670" width="10" height="10" as="geometry" />
        </mxCell>
        <mxCell id="8zKR5QXtWBGNY6RMP4Kf-34" value="" style="ellipse;whiteSpace=wrap;html=1;aspect=fixed;" parent="1" vertex="1">
          <mxGeometry x="205" y="670" width="10" height="10" as="geometry" />
        </mxCell>
        <mxCell id="8zKR5QXtWBGNY6RMP4Kf-35" value="" style="ellipse;whiteSpace=wrap;html=1;aspect=fixed;" parent="1" vertex="1">
          <mxGeometry x="305" y="670" width="10" height="10" as="geometry" />
        </mxCell>
        <mxCell id="8zKR5QXtWBGNY6RMP4Kf-36" value="" style="ellipse;whiteSpace=wrap;html=1;aspect=fixed;" parent="1" vertex="1">
          <mxGeometry x="285" y="670" width="10" height="10" as="geometry" />
        </mxCell>
        <mxCell id="8zKR5QXtWBGNY6RMP4Kf-37" value="" style="ellipse;whiteSpace=wrap;html=1;aspect=fixed;" parent="1" vertex="1">
          <mxGeometry x="245" y="670" width="10" height="10" as="geometry" />
        </mxCell>
        <mxCell id="8zKR5QXtWBGNY6RMP4Kf-38" value="" style="ellipse;whiteSpace=wrap;html=1;aspect=fixed;" parent="1" vertex="1">
          <mxGeometry x="225" y="670" width="10" height="10" as="geometry" />
        </mxCell>
        <mxCell id="8zKR5QXtWBGNY6RMP4Kf-39" value="" style="ellipse;whiteSpace=wrap;html=1;aspect=fixed;" parent="1" vertex="1">
          <mxGeometry x="265" y="670" width="10" height="10" as="geometry" />
        </mxCell>
        <mxCell id="8zKR5QXtWBGNY6RMP4Kf-40" value="" style="ellipse;whiteSpace=wrap;html=1;aspect=fixed;" parent="1" vertex="1">
          <mxGeometry x="165" y="670" width="10" height="10" as="geometry" />
        </mxCell>
        <mxCell id="8zKR5QXtWBGNY6RMP4Kf-41" value="" style="ellipse;whiteSpace=wrap;html=1;aspect=fixed;" parent="1" vertex="1">
          <mxGeometry x="65" y="670" width="10" height="10" as="geometry" />
        </mxCell>
        <mxCell id="8zKR5QXtWBGNY6RMP4Kf-42" value="" style="ellipse;whiteSpace=wrap;html=1;aspect=fixed;" parent="1" vertex="1">
          <mxGeometry x="185" y="670" width="10" height="10" as="geometry" />
        </mxCell>
        <mxCell id="8zKR5QXtWBGNY6RMP4Kf-43" value="" style="ellipse;whiteSpace=wrap;html=1;aspect=fixed;" parent="1" vertex="1">
          <mxGeometry x="105" y="670" width="10" height="10" as="geometry" />
        </mxCell>
        <mxCell id="8zKR5QXtWBGNY6RMP4Kf-44" value="&lt;font style=&quot;font-size: 10px;&quot;&gt;VIN&lt;/font&gt;" style="text;html=1;align=center;verticalAlign=middle;whiteSpace=wrap;rounded=0;rotation=90;" parent="1" vertex="1">
          <mxGeometry x="21.879999999999995" y="604" width="16.25" height="10" as="geometry" />
        </mxCell>
        <mxCell id="8zKR5QXtWBGNY6RMP4Kf-45" value="&lt;font style=&quot;font-size: 10px;&quot;&gt;GND&lt;/font&gt;" style="text;html=1;align=center;verticalAlign=middle;whiteSpace=wrap;rounded=0;rotation=90;" parent="1" vertex="1">
          <mxGeometry x="38.44" y="607.44" width="23.12" height="10" as="geometry" />
        </mxCell>
        <mxCell id="8zKR5QXtWBGNY6RMP4Kf-46" value="&lt;font style=&quot;font-size: 10px;&quot;&gt;D13&lt;/font&gt;" style="text;html=1;align=center;verticalAlign=middle;whiteSpace=wrap;rounded=0;rotation=90;" parent="1" vertex="1">
          <mxGeometry x="61.72" y="604.16" width="16.56" height="10" as="geometry" />
        </mxCell>
        <mxCell id="8zKR5QXtWBGNY6RMP4Kf-47" value="&lt;font style=&quot;font-size: 10px;&quot;&gt;D12&lt;/font&gt;" style="text;html=1;align=center;verticalAlign=middle;whiteSpace=wrap;rounded=0;rotation=90;" parent="1" vertex="1">
          <mxGeometry x="81.88" y="604" width="16.25" height="10" as="geometry" />
        </mxCell>
        <mxCell id="8zKR5QXtWBGNY6RMP4Kf-48" value="&lt;font style=&quot;font-size: 10px;&quot;&gt;D14&lt;/font&gt;" style="text;html=1;align=center;verticalAlign=middle;whiteSpace=wrap;rounded=0;rotation=90;" parent="1" vertex="1">
          <mxGeometry x="101.88" y="604" width="16.25" height="10" as="geometry" />
        </mxCell>
        <mxCell id="8zKR5QXtWBGNY6RMP4Kf-49" value="&lt;font style=&quot;font-size: 10px;&quot;&gt;D27&lt;/font&gt;" style="text;html=1;align=center;verticalAlign=middle;whiteSpace=wrap;rounded=0;rotation=90;" parent="1" vertex="1">
          <mxGeometry x="121.88" y="604" width="16.25" height="10" as="geometry" />
        </mxCell>
        <mxCell id="8zKR5QXtWBGNY6RMP4Kf-50" value="&lt;font style=&quot;font-size: 10px;&quot;&gt;D26&lt;/font&gt;" style="text;html=1;align=center;verticalAlign=middle;whiteSpace=wrap;rounded=0;rotation=90;" parent="1" vertex="1">
          <mxGeometry x="141.88" y="604" width="16.25" height="10" as="geometry" />
        </mxCell>
        <mxCell id="8zKR5QXtWBGNY6RMP4Kf-51" value="&lt;font style=&quot;font-size: 10px;&quot;&gt;D25&lt;/font&gt;" style="text;html=1;align=center;verticalAlign=middle;whiteSpace=wrap;rounded=0;rotation=90;" parent="1" vertex="1">
          <mxGeometry x="161.88" y="604" width="16.25" height="10" as="geometry" />
        </mxCell>
        <mxCell id="8zKR5QXtWBGNY6RMP4Kf-52" value="&lt;font style=&quot;font-size: 10px;&quot;&gt;D33&lt;/font&gt;" style="text;html=1;align=center;verticalAlign=middle;whiteSpace=wrap;rounded=0;rotation=90;" parent="1" vertex="1">
          <mxGeometry x="181.88" y="604" width="16.25" height="10" as="geometry" />
        </mxCell>
        <mxCell id="8zKR5QXtWBGNY6RMP4Kf-53" value="&lt;font style=&quot;font-size: 10px;&quot;&gt;D32&lt;/font&gt;" style="text;html=1;align=center;verticalAlign=middle;whiteSpace=wrap;rounded=0;rotation=90;" parent="1" vertex="1">
          <mxGeometry x="201.88" y="604" width="16.25" height="10" as="geometry" />
        </mxCell>
        <mxCell id="8zKR5QXtWBGNY6RMP4Kf-54" value="&lt;font style=&quot;font-size: 10px;&quot;&gt;D35&lt;/font&gt;" style="text;html=1;align=center;verticalAlign=middle;whiteSpace=wrap;rounded=0;rotation=90;" parent="1" vertex="1">
          <mxGeometry x="221.88" y="604" width="16.25" height="10" as="geometry" />
        </mxCell>
        <mxCell id="8zKR5QXtWBGNY6RMP4Kf-55" value="&lt;font style=&quot;font-size: 10px;&quot;&gt;D34&lt;/font&gt;" style="text;html=1;align=center;verticalAlign=middle;whiteSpace=wrap;rounded=0;rotation=90;" parent="1" vertex="1">
          <mxGeometry x="241.88" y="604" width="16.25" height="10" as="geometry" />
        </mxCell>
        <mxCell id="8zKR5QXtWBGNY6RMP4Kf-56" value="&lt;font style=&quot;font-size: 10px;&quot;&gt;UN&lt;/font&gt;" style="text;html=1;align=center;verticalAlign=middle;whiteSpace=wrap;rounded=0;rotation=90;" parent="1" vertex="1">
          <mxGeometry x="261.88" y="604" width="16.25" height="10" as="geometry" />
        </mxCell>
        <mxCell id="8zKR5QXtWBGNY6RMP4Kf-57" value="&lt;font style=&quot;font-size: 10px;&quot;&gt;VP&lt;/font&gt;" style="text;html=1;align=center;verticalAlign=middle;whiteSpace=wrap;rounded=0;rotation=90;" parent="1" vertex="1">
          <mxGeometry x="281.88" y="604" width="16.25" height="10" as="geometry" />
        </mxCell>
        <mxCell id="8zKR5QXtWBGNY6RMP4Kf-58" value="&lt;font style=&quot;font-size: 10px;&quot;&gt;EN&lt;/font&gt;" style="text;html=1;align=center;verticalAlign=middle;whiteSpace=wrap;rounded=0;rotation=90;" parent="1" vertex="1">
          <mxGeometry x="301.88" y="604" width="16.25" height="10" as="geometry" />
        </mxCell>
        <mxCell id="8zKR5QXtWBGNY6RMP4Kf-60" value="&lt;font style=&quot;font-size: 10px;&quot;&gt;3.3V&lt;/font&gt;" style="text;html=1;align=center;verticalAlign=middle;whiteSpace=wrap;rounded=0;rotation=90;" parent="1" vertex="1">
          <mxGeometry x="18.36" y="655" width="23.27" height="10" as="geometry" />
        </mxCell>
        <mxCell id="8zKR5QXtWBGNY6RMP4Kf-61" value="&lt;font style=&quot;font-size: 10px;&quot;&gt;GND&lt;/font&gt;" style="text;html=1;align=center;verticalAlign=middle;whiteSpace=wrap;rounded=0;rotation=90;" parent="1" vertex="1">
          <mxGeometry x="36.72" y="653.28" width="26.56" height="10" as="geometry" />
        </mxCell>
        <mxCell id="8zKR5QXtWBGNY6RMP4Kf-62" value="&lt;font style=&quot;font-size: 10px;&quot;&gt;D15&lt;/font&gt;" style="text;html=1;align=center;verticalAlign=middle;whiteSpace=wrap;rounded=0;rotation=90;" parent="1" vertex="1">
          <mxGeometry x="62.03" y="655" width="16.25" height="10" as="geometry" />
        </mxCell>
        <mxCell id="8zKR5QXtWBGNY6RMP4Kf-63" value="&lt;font style=&quot;font-size: 10px;&quot;&gt;D2&lt;/font&gt;" style="text;html=1;align=center;verticalAlign=middle;whiteSpace=wrap;rounded=0;rotation=90;" parent="1" vertex="1">
          <mxGeometry x="81.88" y="655" width="16.25" height="10" as="geometry" />
        </mxCell>
        <mxCell id="8zKR5QXtWBGNY6RMP4Kf-64" value="&lt;font style=&quot;font-size: 10px;&quot;&gt;D4&lt;/font&gt;" style="text;html=1;align=center;verticalAlign=middle;whiteSpace=wrap;rounded=0;rotation=90;" parent="1" vertex="1">
          <mxGeometry x="101.88" y="655" width="16.25" height="10" as="geometry" />
        </mxCell>
        <mxCell id="8zKR5QXtWBGNY6RMP4Kf-65" value="&lt;span style=&quot;font-size: 10px;&quot;&gt;RX2&lt;/span&gt;" style="text;html=1;align=center;verticalAlign=middle;whiteSpace=wrap;rounded=0;rotation=90;" parent="1" vertex="1">
          <mxGeometry x="121.88" y="655" width="16.25" height="10" as="geometry" />
        </mxCell>
        <mxCell id="8zKR5QXtWBGNY6RMP4Kf-66" value="&lt;font style=&quot;font-size: 10px;&quot;&gt;TX2&lt;/font&gt;" style="text;html=1;align=center;verticalAlign=middle;whiteSpace=wrap;rounded=0;rotation=90;" parent="1" vertex="1">
          <mxGeometry x="141.88" y="655" width="16.25" height="10" as="geometry" />
        </mxCell>
        <mxCell id="8zKR5QXtWBGNY6RMP4Kf-67" value="&lt;font style=&quot;font-size: 10px;&quot;&gt;D5&lt;/font&gt;" style="text;html=1;align=center;verticalAlign=middle;whiteSpace=wrap;rounded=0;rotation=90;" parent="1" vertex="1">
          <mxGeometry x="162.03" y="655" width="16.25" height="10" as="geometry" />
        </mxCell>
        <mxCell id="8zKR5QXtWBGNY6RMP4Kf-68" value="&lt;font style=&quot;font-size: 10px;&quot;&gt;D18&lt;/font&gt;" style="text;html=1;align=center;verticalAlign=middle;whiteSpace=wrap;rounded=0;rotation=90;" parent="1" vertex="1">
          <mxGeometry x="181.88" y="655" width="16.25" height="10" as="geometry" />
        </mxCell>
        <mxCell id="8zKR5QXtWBGNY6RMP4Kf-69" value="&lt;font style=&quot;font-size: 10px;&quot;&gt;D19&lt;/font&gt;" style="text;html=1;align=center;verticalAlign=middle;whiteSpace=wrap;rounded=0;rotation=90;" parent="1" vertex="1">
          <mxGeometry x="201.88" y="655" width="16.25" height="10" as="geometry" />
        </mxCell>
        <mxCell id="8zKR5QXtWBGNY6RMP4Kf-70" value="&lt;font style=&quot;font-size: 10px;&quot;&gt;D21&lt;/font&gt;" style="text;html=1;align=center;verticalAlign=middle;whiteSpace=wrap;rounded=0;rotation=90;" parent="1" vertex="1">
          <mxGeometry x="221.88" y="655" width="16.25" height="10" as="geometry" />
        </mxCell>
        <mxCell id="8zKR5QXtWBGNY6RMP4Kf-71" value="&lt;font style=&quot;font-size: 10px;&quot;&gt;RXO&lt;/font&gt;" style="text;html=1;align=center;verticalAlign=middle;whiteSpace=wrap;rounded=0;rotation=90;" parent="1" vertex="1">
          <mxGeometry x="241.87" y="655" width="16.25" height="10" as="geometry" />
        </mxCell>
        <mxCell id="8zKR5QXtWBGNY6RMP4Kf-72" value="&lt;font style=&quot;font-size: 10px;&quot;&gt;TXO&lt;/font&gt;" style="text;html=1;align=center;verticalAlign=middle;whiteSpace=wrap;rounded=0;rotation=90;" parent="1" vertex="1">
          <mxGeometry x="261.88" y="655" width="16.25" height="10" as="geometry" />
        </mxCell>
        <mxCell id="8zKR5QXtWBGNY6RMP4Kf-74" value="&lt;font style=&quot;font-size: 10px;&quot;&gt;D22&lt;/font&gt;" style="text;html=1;align=center;verticalAlign=middle;whiteSpace=wrap;rounded=0;rotation=90;" parent="1" vertex="1">
          <mxGeometry x="281.88" y="655" width="16.25" height="10" as="geometry" />
        </mxCell>
        <mxCell id="8zKR5QXtWBGNY6RMP4Kf-75" value="&lt;font style=&quot;font-size: 10px;&quot;&gt;D23&lt;/font&gt;" style="text;html=1;align=center;verticalAlign=middle;whiteSpace=wrap;rounded=0;rotation=90;" parent="1" vertex="1">
          <mxGeometry x="301.88" y="655" width="16.25" height="10" as="geometry" />
        </mxCell>
        <mxCell id="8zKR5QXtWBGNY6RMP4Kf-78" value="" style="group" parent="1" vertex="1" connectable="0">
          <mxGeometry x="5" y="607.4399999999999" width="20" height="12.860000000000014" as="geometry" />
        </mxCell>
        <mxCell id="8zKR5QXtWBGNY6RMP4Kf-76" value="" style="rounded=0;whiteSpace=wrap;html=1;" parent="8zKR5QXtWBGNY6RMP4Kf-78" vertex="1">
          <mxGeometry y="5.210000000000036" width="20" height="2.44" as="geometry" />
        </mxCell>
        <mxCell id="8zKR5QXtWBGNY6RMP4Kf-77" value="&lt;font style=&quot;font-size: 5px;&quot;&gt;EN&lt;/font&gt;" style="ellipse;whiteSpace=wrap;html=1;aspect=fixed;" parent="8zKR5QXtWBGNY6RMP4Kf-78" vertex="1">
          <mxGeometry x="3.569999999999993" width="12.86" height="12.86" as="geometry" />
        </mxCell>
        <mxCell id="8zKR5QXtWBGNY6RMP4Kf-79" value="" style="group" parent="1" vertex="1" connectable="0">
          <mxGeometry x="5" y="650.42" width="20" height="12.860000000000014" as="geometry" />
        </mxCell>
        <mxCell id="8zKR5QXtWBGNY6RMP4Kf-80" value="" style="rounded=0;whiteSpace=wrap;html=1;" parent="8zKR5QXtWBGNY6RMP4Kf-79" vertex="1">
          <mxGeometry y="5.210000000000036" width="20" height="2.44" as="geometry" />
        </mxCell>
        <mxCell id="8zKR5QXtWBGNY6RMP4Kf-81" value="&lt;font style=&quot;font-size: 3px;&quot;&gt;BOOT&lt;/font&gt;" style="ellipse;whiteSpace=wrap;html=1;aspect=fixed;" parent="8zKR5QXtWBGNY6RMP4Kf-79" vertex="1">
          <mxGeometry x="3.569999999999993" width="12.86" height="12.86" as="geometry" />
        </mxCell>
        <mxCell id="8zKR5QXtWBGNY6RMP4Kf-82" value="&lt;font style=&quot;font-size: 6px; line-height: 100%;&quot;&gt;USB-C&lt;/font&gt;" style="rounded=0;whiteSpace=wrap;html=1;" parent="1" vertex="1">
          <mxGeometry y="627.5" width="25" height="15" as="geometry" />
        </mxCell>
        <mxCell id="6HL7fSu7sFX8N83Fmbjs-34" style="edgeStyle=orthogonalEdgeStyle;rounded=0;orthogonalLoop=1;jettySize=auto;html=1;exitX=0;exitY=0.25;exitDx=0;exitDy=0;endArrow=none;endFill=0;fillColor=#f8cecc;strokeColor=#b85450;" edge="1" parent="1" source="6HL7fSu7sFX8N83Fmbjs-2">
          <mxGeometry relative="1" as="geometry">
            <mxPoint x="-80" y="755" as="targetPoint" />
          </mxGeometry>
        </mxCell>
        <mxCell id="6HL7fSu7sFX8N83Fmbjs-2" value="&lt;b&gt;Relay Board&lt;/b&gt;" style="rounded=1;whiteSpace=wrap;html=1;" vertex="1" parent="1">
          <mxGeometry y="740" width="140" height="60" as="geometry" />
        </mxCell>
        <mxCell id="6HL7fSu7sFX8N83Fmbjs-3" value="" style="ellipse;whiteSpace=wrap;html=1;aspect=fixed;" vertex="1" parent="1">
          <mxGeometry x="-270" y="780" width="10" height="10" as="geometry" />
        </mxCell>
        <mxCell id="6HL7fSu7sFX8N83Fmbjs-4" value="" style="ellipse;whiteSpace=wrap;html=1;aspect=fixed;" vertex="1" parent="1">
          <mxGeometry x="-270" y="750" width="10" height="10" as="geometry" />
        </mxCell>
        <mxCell id="6HL7fSu7sFX8N83Fmbjs-5" value="" style="ellipse;whiteSpace=wrap;html=1;aspect=fixed;" vertex="1" parent="1">
          <mxGeometry x="-160" y="780" width="10" height="10" as="geometry" />
        </mxCell>
        <mxCell id="6HL7fSu7sFX8N83Fmbjs-26" style="edgeStyle=orthogonalEdgeStyle;rounded=0;orthogonalLoop=1;jettySize=auto;html=1;exitX=1;exitY=0.5;exitDx=0;exitDy=0;entryX=0.5;entryY=0;entryDx=0;entryDy=0;endArrow=none;endFill=0;fillColor=#f8cecc;strokeColor=#b85450;" edge="1" parent="1" source="6HL7fSu7sFX8N83Fmbjs-6" target="8zKR5QXtWBGNY6RMP4Kf-5">
          <mxGeometry relative="1" as="geometry" />
        </mxCell>
        <mxCell id="6HL7fSu7sFX8N83Fmbjs-6" value="" style="ellipse;whiteSpace=wrap;html=1;aspect=fixed;" vertex="1" parent="1">
          <mxGeometry x="-160" y="750" width="10" height="10" as="geometry" />
        </mxCell>
        <mxCell id="6HL7fSu7sFX8N83Fmbjs-35" style="edgeStyle=orthogonalEdgeStyle;rounded=0;orthogonalLoop=1;jettySize=auto;html=1;exitX=0;exitY=0.5;exitDx=0;exitDy=0;endArrow=none;endFill=0;" edge="1" parent="1" source="6HL7fSu7sFX8N83Fmbjs-7">
          <mxGeometry relative="1" as="geometry">
            <mxPoint x="-50" y="780" as="targetPoint" />
            <Array as="points">
              <mxPoint x="-50" y="770" />
            </Array>
          </mxGeometry>
        </mxCell>
        <mxCell id="6HL7fSu7sFX8N83Fmbjs-7" value="" style="ellipse;whiteSpace=wrap;html=1;aspect=fixed;" vertex="1" parent="1">
          <mxGeometry x="-7.105427357601002e-15" y="765" width="10" height="10" as="geometry" />
        </mxCell>
        <mxCell id="6HL7fSu7sFX8N83Fmbjs-8" value="" style="ellipse;whiteSpace=wrap;html=1;aspect=fixed;" vertex="1" parent="1">
          <mxGeometry y="780" width="10" height="10" as="geometry" />
        </mxCell>
        <mxCell id="6HL7fSu7sFX8N83Fmbjs-9" value="" style="ellipse;whiteSpace=wrap;html=1;aspect=fixed;" vertex="1" parent="1">
          <mxGeometry y="750" width="10" height="10" as="geometry" />
        </mxCell>
        <mxCell id="6HL7fSu7sFX8N83Fmbjs-13" value="&lt;font style=&quot;font-size: 10px;&quot;&gt;VIN+&lt;/font&gt;" style="text;html=1;align=center;verticalAlign=middle;whiteSpace=wrap;rounded=0;rotation=0;" vertex="1" parent="1">
          <mxGeometry x="-260" y="750" width="26.25" height="10" as="geometry" />
        </mxCell>
        <mxCell id="6HL7fSu7sFX8N83Fmbjs-14" value="&lt;font style=&quot;font-size: 10px;&quot;&gt;VIN-&lt;/font&gt;" style="text;html=1;align=center;verticalAlign=middle;whiteSpace=wrap;rounded=0;rotation=0;" vertex="1" parent="1">
          <mxGeometry x="-260" y="780" width="26.25" height="10" as="geometry" />
        </mxCell>
        <mxCell id="6HL7fSu7sFX8N83Fmbjs-15" value="&lt;font style=&quot;font-size: 10px;&quot;&gt;VOUT+&lt;/font&gt;" style="text;html=1;align=center;verticalAlign=middle;whiteSpace=wrap;rounded=0;rotation=0;" vertex="1" parent="1">
          <mxGeometry x="-196.25" y="750" width="36.25" height="10" as="geometry" />
        </mxCell>
        <mxCell id="6HL7fSu7sFX8N83Fmbjs-17" value="&lt;font style=&quot;font-size: 10px;&quot;&gt;VOUT-&lt;/font&gt;" style="text;html=1;align=center;verticalAlign=middle;whiteSpace=wrap;rounded=0;rotation=0;" vertex="1" parent="1">
          <mxGeometry x="-196.25" y="780" width="36.25" height="10" as="geometry" />
        </mxCell>
        <mxCell id="6HL7fSu7sFX8N83Fmbjs-23" style="edgeStyle=orthogonalEdgeStyle;rounded=0;orthogonalLoop=1;jettySize=auto;html=1;exitX=0.5;exitY=1;exitDx=0;exitDy=0;entryX=0;entryY=0.5;entryDx=0;entryDy=0;endArrow=none;endFill=0;" edge="1" parent="1" source="6HL7fSu7sFX8N83Fmbjs-19" target="6HL7fSu7sFX8N83Fmbjs-3">
          <mxGeometry relative="1" as="geometry">
            <Array as="points">
              <mxPoint x="-229" y="670" />
              <mxPoint x="-320" y="670" />
              <mxPoint x="-320" y="785" />
            </Array>
          </mxGeometry>
        </mxCell>
        <mxCell id="6HL7fSu7sFX8N83Fmbjs-19" value="&lt;font style=&quot;color: rgb(255, 255, 255);&quot;&gt;-&lt;/font&gt;" style="ellipse;whiteSpace=wrap;html=1;aspect=fixed;fillColor=#000000;" vertex="1" parent="1">
          <mxGeometry x="-233.75" y="640" width="10" height="10" as="geometry" />
        </mxCell>
        <mxCell id="6HL7fSu7sFX8N83Fmbjs-24" style="edgeStyle=orthogonalEdgeStyle;rounded=0;orthogonalLoop=1;jettySize=auto;html=1;exitX=0.5;exitY=1;exitDx=0;exitDy=0;entryX=0;entryY=0.5;entryDx=0;entryDy=0;fillColor=#f8cecc;strokeColor=#b85450;endArrow=none;endFill=0;" edge="1" parent="1" source="6HL7fSu7sFX8N83Fmbjs-22" target="6HL7fSu7sFX8N83Fmbjs-4">
          <mxGeometry relative="1" as="geometry" />
        </mxCell>
        <mxCell id="6HL7fSu7sFX8N83Fmbjs-45" style="edgeStyle=orthogonalEdgeStyle;rounded=0;orthogonalLoop=1;jettySize=auto;html=1;exitX=0.5;exitY=1;exitDx=0;exitDy=0;entryX=0;entryY=0.5;entryDx=0;entryDy=0;endArrow=none;endFill=0;fillColor=#f8cecc;strokeColor=#b85450;" edge="1" parent="1" source="6HL7fSu7sFX8N83Fmbjs-22" target="6HL7fSu7sFX8N83Fmbjs-43">
          <mxGeometry relative="1" as="geometry">
            <Array as="points">
              <mxPoint x="-191" y="700" />
              <mxPoint x="-110" y="700" />
              <mxPoint x="-110" y="530" />
              <mxPoint x="380" y="530" />
              <mxPoint x="380" y="710" />
              <mxPoint x="240" y="710" />
              <mxPoint x="240" y="762" />
            </Array>
          </mxGeometry>
        </mxCell>
        <mxCell id="6HL7fSu7sFX8N83Fmbjs-22" value="+" style="ellipse;whiteSpace=wrap;html=1;aspect=fixed;fillColor=#f8cecc;strokeColor=#b85450;" vertex="1" parent="1">
          <mxGeometry x="-196.25" y="640" width="10" height="10" as="geometry" />
        </mxCell>
        <mxCell id="6HL7fSu7sFX8N83Fmbjs-25" value="&lt;b&gt;5V&lt;/b&gt;" style="text;html=1;align=center;verticalAlign=middle;whiteSpace=wrap;rounded=0;" vertex="1" parent="1">
          <mxGeometry x="-240" y="740" width="53.75" height="20" as="geometry" />
        </mxCell>
        <mxCell id="6HL7fSu7sFX8N83Fmbjs-28" value="&lt;font style=&quot;font-size: 10px;&quot;&gt;IN&lt;/font&gt;" style="text;html=1;align=center;verticalAlign=middle;whiteSpace=wrap;rounded=0;rotation=-1;" vertex="1" parent="1">
          <mxGeometry x="6.719999999999999" y="780" width="16.56" height="10" as="geometry" />
        </mxCell>
        <mxCell id="6HL7fSu7sFX8N83Fmbjs-29" value="&lt;font style=&quot;font-size: 10px;&quot;&gt;GND&lt;/font&gt;" style="text;html=1;align=center;verticalAlign=middle;whiteSpace=wrap;rounded=0;rotation=0;" vertex="1" parent="1">
          <mxGeometry x="6.719999999999999" y="765" width="26.65" height="10" as="geometry" />
        </mxCell>
        <mxCell id="6HL7fSu7sFX8N83Fmbjs-47" style="edgeStyle=orthogonalEdgeStyle;rounded=0;orthogonalLoop=1;jettySize=auto;html=1;exitX=1;exitY=0.5;exitDx=0;exitDy=0;endArrow=none;endFill=0;" edge="1" parent="1" source="6HL7fSu7sFX8N83Fmbjs-30">
          <mxGeometry relative="1" as="geometry">
            <mxPoint x="-320" y="780" as="targetPoint" />
            <Array as="points">
              <mxPoint x="160" y="770" />
              <mxPoint x="160" y="810" />
              <mxPoint x="-320" y="810" />
            </Array>
          </mxGeometry>
        </mxCell>
        <mxCell id="6HL7fSu7sFX8N83Fmbjs-30" value="" style="ellipse;whiteSpace=wrap;html=1;aspect=fixed;" vertex="1" parent="1">
          <mxGeometry x="130" y="765" width="10" height="10" as="geometry" />
        </mxCell>
        <mxCell id="6HL7fSu7sFX8N83Fmbjs-31" value="" style="ellipse;whiteSpace=wrap;html=1;aspect=fixed;" vertex="1" parent="1">
          <mxGeometry x="130" y="780" width="10" height="10" as="geometry" />
        </mxCell>
        <mxCell id="6HL7fSu7sFX8N83Fmbjs-32" value="" style="ellipse;whiteSpace=wrap;html=1;aspect=fixed;" vertex="1" parent="1">
          <mxGeometry x="130" y="750" width="10" height="10" as="geometry" />
        </mxCell>
        <mxCell id="6HL7fSu7sFX8N83Fmbjs-33" value="&lt;font style=&quot;font-size: 10px;&quot;&gt;VCC&lt;/font&gt;" style="text;html=1;align=center;verticalAlign=middle;whiteSpace=wrap;rounded=0;rotation=0;" vertex="1" parent="1">
          <mxGeometry x="8.35" y="750" width="26.65" height="10" as="geometry" />
        </mxCell>
        <mxCell id="6HL7fSu7sFX8N83Fmbjs-36" value="&lt;font style=&quot;font-size: 10px;&quot;&gt;NO&lt;/font&gt;" style="text;html=1;align=center;verticalAlign=middle;whiteSpace=wrap;rounded=0;rotation=-1;" vertex="1" parent="1">
          <mxGeometry x="113.44" y="780" width="16.56" height="10" as="geometry" />
        </mxCell>
        <mxCell id="6HL7fSu7sFX8N83Fmbjs-37" value="&lt;font style=&quot;font-size: 10px;&quot;&gt;COM&lt;/font&gt;" style="text;html=1;align=center;verticalAlign=middle;whiteSpace=wrap;rounded=0;rotation=-1;" vertex="1" parent="1">
          <mxGeometry x="108.44" y="764.96" width="21.56" height="10" as="geometry" />
        </mxCell>
        <mxCell id="6HL7fSu7sFX8N83Fmbjs-38" value="&lt;font style=&quot;font-size: 10px;&quot;&gt;NC&lt;/font&gt;" style="text;html=1;align=center;verticalAlign=middle;whiteSpace=wrap;rounded=0;rotation=-1;" vertex="1" parent="1">
          <mxGeometry x="113.44" y="750" width="16.56" height="10" as="geometry" />
        </mxCell>
        <mxCell id="6HL7fSu7sFX8N83Fmbjs-40" value="&lt;b&gt;12v Solenoid&lt;/b&gt;" style="shape=cylinder3;whiteSpace=wrap;html=1;boundedLbl=1;backgroundOutline=1;size=15;rotation=-90;" vertex="1" parent="1">
          <mxGeometry x="265" y="729.96" width="60" height="80" as="geometry" />
        </mxCell>
        <mxCell id="6HL7fSu7sFX8N83Fmbjs-41" value="" style="ellipse;whiteSpace=wrap;html=1;aspect=fixed;" vertex="1" parent="1">
          <mxGeometry x="258.12" y="757.48" width="10" height="10" as="geometry" />
        </mxCell>
        <mxCell id="6HL7fSu7sFX8N83Fmbjs-42" value="" style="ellipse;whiteSpace=wrap;html=1;aspect=fixed;" vertex="1" parent="1">
          <mxGeometry x="258.12" y="772.52" width="10" height="10" as="geometry" />
        </mxCell>
        <mxCell id="6HL7fSu7sFX8N83Fmbjs-43" value="+" style="ellipse;whiteSpace=wrap;html=1;aspect=fixed;fillColor=#f8cecc;strokeColor=#b85450;" vertex="1" parent="1">
          <mxGeometry x="258.13" y="757.48" width="10" height="10" as="geometry" />
        </mxCell>
        <mxCell id="6HL7fSu7sFX8N83Fmbjs-46" style="edgeStyle=orthogonalEdgeStyle;rounded=0;orthogonalLoop=1;jettySize=auto;html=1;entryX=1;entryY=0.5;entryDx=0;entryDy=0;endArrow=none;endFill=0;" edge="1" parent="1" source="6HL7fSu7sFX8N83Fmbjs-44" target="6HL7fSu7sFX8N83Fmbjs-31">
          <mxGeometry relative="1" as="geometry">
            <Array as="points">
              <mxPoint x="240" y="778" />
              <mxPoint x="240" y="785" />
            </Array>
          </mxGeometry>
        </mxCell>
        <mxCell id="6HL7fSu7sFX8N83Fmbjs-44" value="&lt;font style=&quot;color: rgb(255, 255, 255);&quot;&gt;-&lt;/font&gt;" style="ellipse;whiteSpace=wrap;html=1;aspect=fixed;fillColor=#000000;" vertex="1" parent="1">
          <mxGeometry x="258.13" y="772.52" width="10" height="10" as="geometry" />
        </mxCell>
      </root>
    </mxGraphModel>
  </diagram>
</mxfile>
